<mxfile host="65bd71144e">
    <diagram id="HhKMYIp6LWCP82cMmROU" name="Page-1">
        <mxGraphModel dx="956" dy="537" grid="1" gridSize="10" guides="1" tooltips="1" connect="1" arrows="1" fold="1" page="0" pageScale="1" pageWidth="3300" pageHeight="4681" math="0" shadow="0">
            <root>
                <mxCell id="0"/>
                <mxCell id="1" parent="0"/>
                <mxCell id="2" value="caserma" style="whiteSpace=wrap;html=1;" vertex="1" parent="1">
                    <mxGeometry x="320" y="230" width="120" height="60" as="geometry"/>
                </mxCell>
                <mxCell id="4" value="&lt;div style=&quot;font-size: 12px;&quot;&gt;&lt;span style=&quot;font-size: 12px;&quot;&gt;&lt;span style=&quot;font-size: 12px;&quot;&gt;&lt;font color=&quot;#ffffff&quot;&gt;codice&lt;/font&gt;&lt;/span&gt;&lt;/span&gt;&lt;/div&gt;" style="ellipse;whiteSpace=wrap;html=1;labelPosition=right;verticalLabelPosition=middle;align=left;verticalAlign=middle;labelBackgroundColor=default;fillColor=#000000;spacingLeft=2;fontSize=12;aspect=fixed;snapToPoint=1;fontColor=#222222;allowArrows=1;" vertex="1" parent="1">
                    <mxGeometry x="345" y="170" width="10" height="10" as="geometry"/>
                </mxCell>
                <mxCell id="6" value="&lt;div style=&quot;font-size: 12px;&quot;&gt;&lt;span style=&quot;font-size: 12px;&quot;&gt;&lt;span style=&quot;font-size: 12px;&quot;&gt;&lt;font color=&quot;#ffffff&quot;&gt;indirizzo&lt;/font&gt;&lt;/span&gt;&lt;/span&gt;&lt;/div&gt;" style="ellipse;whiteSpace=wrap;html=1;labelPosition=right;verticalLabelPosition=middle;align=left;verticalAlign=middle;labelBackgroundColor=default;fillColor=none;spacingLeft=2;fontSize=12;strokeWidth=2;snapToPoint=1;fontColor=#222222;allowArrows=1;" vertex="1" parent="1">
                    <mxGeometry x="405" y="210" width="10" height="10" as="geometry"/>
                </mxCell>
                <mxCell id="14" value="&lt;div style=&quot;font-size: 12px&quot;&gt;&lt;span style=&quot;font-size: 12px&quot;&gt;&lt;span style=&quot;font-size: 12px&quot;&gt;&lt;font color=&quot;#ffffff&quot;&gt;nome&lt;/font&gt;&lt;/span&gt;&lt;/span&gt;&lt;/div&gt;" style="ellipse;whiteSpace=wrap;html=1;labelPosition=lrft;verticalLabelPosition=middle;align=right;verticalAlign=middle;labelBackgroundColor=default;fillColor=none;spacingLeft=0;fontSize=12;strokeWidth=2;snapToPoint=1;spacingRight=12;fontColor=#222222;allowArrows=1;spacing=2;" vertex="1" parent="1">
                    <mxGeometry x="300" y="255" width="10" height="10" as="geometry"/>
                </mxCell>
                <mxCell id="15" value="" style="endArrow=none;html=1;fontColor=#FFFFFF;entryX=0;entryY=0.5;entryDx=0;entryDy=0;exitX=1;exitY=0.5;exitDx=0;exitDy=0;" edge="1" parent="1" source="14" target="2">
                    <mxGeometry width="50" height="50" relative="1" as="geometry">
                        <mxPoint x="220" y="340" as="sourcePoint"/>
                        <mxPoint x="270" y="290" as="targetPoint"/>
                    </mxGeometry>
                </mxCell>
                <mxCell id="16" value="" style="endArrow=none;html=1;fontColor=#FFFFFF;entryX=0.5;entryY=1;entryDx=0;entryDy=0;exitX=0.25;exitY=0;exitDx=0;exitDy=0;" edge="1" parent="1" source="2" target="4">
                    <mxGeometry width="50" height="50" relative="1" as="geometry">
                        <mxPoint x="290" y="360" as="sourcePoint"/>
                        <mxPoint x="340" y="310" as="targetPoint"/>
                    </mxGeometry>
                </mxCell>
                <mxCell id="17" value="&lt;div style=&quot;font-size: 12px;&quot;&gt;&lt;span style=&quot;font-size: 12px;&quot;&gt;&lt;span style=&quot;font-size: 12px;&quot;&gt;&lt;font color=&quot;#ffffff&quot;&gt;anno_costruzione&lt;/font&gt;&lt;/span&gt;&lt;/span&gt;&lt;/div&gt;" style="ellipse;whiteSpace=wrap;html=1;labelPosition=right;verticalLabelPosition=middle;align=left;verticalAlign=middle;labelBackgroundColor=default;fillColor=none;spacingLeft=2;fontSize=12;strokeWidth=2;snapToPoint=1;fontColor=#222222;allowArrows=1;" vertex="1" parent="1">
                    <mxGeometry x="375" y="190" width="10" height="10" as="geometry"/>
                </mxCell>
                <mxCell id="18" value="" style="endArrow=none;html=1;fontColor=#FFFFFF;entryX=0.5;entryY=1;entryDx=0;entryDy=0;exitX=0.5;exitY=0;exitDx=0;exitDy=0;" edge="1" parent="1" source="2" target="17">
                    <mxGeometry width="50" height="50" relative="1" as="geometry">
                        <mxPoint x="270" y="300" as="sourcePoint"/>
                        <mxPoint x="320" y="250" as="targetPoint"/>
                    </mxGeometry>
                </mxCell>
                <mxCell id="19" value="" style="endArrow=none;html=1;fontColor=#FFFFFF;entryX=0.5;entryY=1;entryDx=0;entryDy=0;exitX=0.75;exitY=0;exitDx=0;exitDy=0;" edge="1" parent="1" source="2" target="6">
                    <mxGeometry width="50" height="50" relative="1" as="geometry">
                        <mxPoint x="250" y="270" as="sourcePoint"/>
                        <mxPoint x="300" y="220" as="targetPoint"/>
                    </mxGeometry>
                </mxCell>
                <mxCell id="20" value="zona" style="whiteSpace=wrap;html=1;fontColor=#FFFFFF;" vertex="1" parent="1">
                    <mxGeometry x="320" y="470" width="120" height="60" as="geometry"/>
                </mxCell>
                <mxCell id="21" value="&lt;div style=&quot;font-size: 12px;&quot;&gt;&lt;span style=&quot;font-size: 12px;&quot;&gt;&lt;span style=&quot;font-size: 12px;&quot;&gt;&lt;font color=&quot;#ffffff&quot;&gt;codice&lt;/font&gt;&lt;/span&gt;&lt;/span&gt;&lt;/div&gt;" style="ellipse;whiteSpace=wrap;html=1;labelPosition=right;verticalLabelPosition=middle;align=left;verticalAlign=middle;labelBackgroundColor=default;fillColor=#000000;spacingLeft=2;fontSize=12;aspect=fixed;snapToPoint=1;fontColor=#222222;allowArrows=1;" vertex="1" parent="1">
                    <mxGeometry x="345" y="560" width="10" height="10" as="geometry"/>
                </mxCell>
                <mxCell id="24" value="&lt;div style=&quot;font-size: 12px;&quot;&gt;&lt;span style=&quot;font-size: 12px;&quot;&gt;&lt;span style=&quot;font-size: 12px;&quot;&gt;&lt;font color=&quot;#ffffff&quot;&gt;nome&lt;/font&gt;&lt;/span&gt;&lt;/span&gt;&lt;/div&gt;" style="ellipse;whiteSpace=wrap;html=1;labelPosition=right;verticalLabelPosition=middle;align=left;verticalAlign=middle;labelBackgroundColor=default;fillColor=none;spacingLeft=2;fontSize=12;strokeWidth=2;snapToPoint=1;fontColor=#222222;allowArrows=1;" vertex="1" parent="1">
                    <mxGeometry x="375" y="541" width="10" height="10" as="geometry"/>
                </mxCell>
                <mxCell id="26" value="" style="endArrow=none;html=1;fontColor=#FFFFFF;exitX=0.25;exitY=1;exitDx=0;exitDy=0;entryX=0.5;entryY=0;entryDx=0;entryDy=0;" edge="1" parent="1" source="20" target="21">
                    <mxGeometry width="50" height="50" relative="1" as="geometry">
                        <mxPoint x="350" y="470" as="sourcePoint"/>
                        <mxPoint x="330" y="560" as="targetPoint"/>
                    </mxGeometry>
                </mxCell>
                <mxCell id="27" value="" style="endArrow=none;html=1;fontColor=#FFFFFF;entryX=0.5;entryY=0;entryDx=0;entryDy=0;exitX=0.5;exitY=1;exitDx=0;exitDy=0;" edge="1" parent="1" source="20" target="24">
                    <mxGeometry width="50" height="50" relative="1" as="geometry">
                        <mxPoint x="390" y="540" as="sourcePoint"/>
                        <mxPoint x="380" y="540" as="targetPoint"/>
                    </mxGeometry>
                </mxCell>
                <mxCell id="28" value="unita" style="whiteSpace=wrap;html=1;fontColor=#FFFFFF;" vertex="1" parent="1">
                    <mxGeometry x="640" y="230" width="120" height="60" as="geometry"/>
                </mxCell>
                <mxCell id="29" value="&lt;div style=&quot;font-size: 12px;&quot;&gt;&lt;span style=&quot;font-size: 12px;&quot;&gt;&lt;span style=&quot;font-size: 12px;&quot;&gt;&lt;font color=&quot;#ffffff&quot;&gt;codice&lt;/font&gt;&lt;/span&gt;&lt;/span&gt;&lt;/div&gt;" style="ellipse;whiteSpace=wrap;html=1;labelPosition=right;verticalLabelPosition=middle;align=left;verticalAlign=middle;labelBackgroundColor=default;fillColor=#000000;spacingLeft=2;fontSize=12;aspect=fixed;snapToPoint=1;fontColor=#222222;allowArrows=1;" vertex="1" parent="1">
                    <mxGeometry x="665" y="190" width="10" height="10" as="geometry"/>
                </mxCell>
                <mxCell id="30" value="&lt;div style=&quot;font-size: 12px;&quot;&gt;&lt;span style=&quot;font-size: 12px;&quot;&gt;&lt;span style=&quot;font-size: 12px;&quot;&gt;&lt;font color=&quot;#ffffff&quot;&gt;nome&lt;/font&gt;&lt;/span&gt;&lt;/span&gt;&lt;/div&gt;" style="ellipse;whiteSpace=wrap;html=1;labelPosition=right;verticalLabelPosition=middle;align=left;verticalAlign=middle;labelBackgroundColor=default;fillColor=none;spacingLeft=2;fontSize=12;strokeWidth=2;snapToPoint=1;fontColor=#222222;allowArrows=1;" vertex="1" parent="1">
                    <mxGeometry x="695" y="210" width="10" height="10" as="geometry"/>
                </mxCell>
                <mxCell id="31" value="" style="endArrow=none;html=1;fontColor=#FFFFFF;entryX=0.5;entryY=1;entryDx=0;entryDy=0;exitX=0.25;exitY=0;exitDx=0;exitDy=0;" edge="1" parent="1" source="28" target="29">
                    <mxGeometry width="50" height="50" relative="1" as="geometry">
                        <mxPoint x="580" y="300" as="sourcePoint"/>
                        <mxPoint x="630" y="250" as="targetPoint"/>
                    </mxGeometry>
                </mxCell>
                <mxCell id="32" value="" style="endArrow=none;html=1;fontColor=#FFFFFF;entryX=0.5;entryY=1;entryDx=0;entryDy=0;exitX=0.5;exitY=0;exitDx=0;exitDy=0;" edge="1" parent="1" source="28" target="30">
                    <mxGeometry width="50" height="50" relative="1" as="geometry">
                        <mxPoint x="590" y="270" as="sourcePoint"/>
                        <mxPoint x="640" y="220" as="targetPoint"/>
                    </mxGeometry>
                </mxCell>
                <mxCell id="33" value="&lt;font color=&quot;#ffffff&quot;&gt;possiede&lt;/font&gt;" style="rhombus;whiteSpace=wrap;html=1;fontSize=12;fontColor=#222222;fillColor=none;snapToPoint=1;" vertex="1" parent="1">
                    <mxGeometry x="500" y="230" width="80" height="60" as="geometry"/>
                </mxCell>
                <mxCell id="34" value="" style="endArrow=none;html=1;fontColor=#FFFFFF;entryX=0;entryY=0.5;entryDx=0;entryDy=0;exitX=1;exitY=0.5;exitDx=0;exitDy=0;" edge="1" parent="1" source="2" target="33">
                    <mxGeometry width="50" height="50" relative="1" as="geometry">
                        <mxPoint x="340" y="430" as="sourcePoint"/>
                        <mxPoint x="390" y="380" as="targetPoint"/>
                    </mxGeometry>
                </mxCell>
                <mxCell id="37" value="1" style="edgeLabel;html=1;align=center;verticalAlign=middle;resizable=0;points=[];fontColor=#FFFFFF;" vertex="1" connectable="0" parent="34">
                    <mxGeometry x="-0.5238" y="-1" relative="1" as="geometry">
                        <mxPoint y="-1" as="offset"/>
                    </mxGeometry>
                </mxCell>
                <mxCell id="36" value="" style="endArrow=none;html=1;fontColor=#FFFFFF;exitX=1;exitY=0.5;exitDx=0;exitDy=0;entryX=0;entryY=0.5;entryDx=0;entryDy=0;" edge="1" parent="1" source="33" target="28">
                    <mxGeometry width="50" height="50" relative="1" as="geometry">
                        <mxPoint x="590" y="270" as="sourcePoint"/>
                        <mxPoint x="640" y="220" as="targetPoint"/>
                    </mxGeometry>
                </mxCell>
                <mxCell id="38" value="1:N" style="edgeLabel;html=1;align=center;verticalAlign=middle;resizable=0;points=[];fontColor=#FFFFFF;" vertex="1" connectable="0" parent="36">
                    <mxGeometry x="0.5714" y="-2" relative="1" as="geometry">
                        <mxPoint x="-11" y="-2" as="offset"/>
                    </mxGeometry>
                </mxCell>
                <mxCell id="39" value="&lt;font color=&quot;#ffffff&quot;&gt;opera&lt;/font&gt;" style="rhombus;whiteSpace=wrap;html=1;fontSize=12;fontColor=#222222;fillColor=none;snapToPoint=1;" vertex="1" parent="1">
                    <mxGeometry x="340" y="350" width="80" height="60" as="geometry"/>
                </mxCell>
                <mxCell id="40" value="" style="endArrow=none;html=1;fontColor=#FFFFFF;entryX=0.5;entryY=1;entryDx=0;entryDy=0;exitX=0.5;exitY=0;exitDx=0;exitDy=0;" edge="1" parent="1" source="20" target="39">
                    <mxGeometry width="50" height="50" relative="1" as="geometry">
                        <mxPoint x="120" y="520" as="sourcePoint"/>
                        <mxPoint x="170" y="470" as="targetPoint"/>
                    </mxGeometry>
                </mxCell>
                <mxCell id="43" value="1:N" style="edgeLabel;html=1;align=center;verticalAlign=middle;resizable=0;points=[];fontColor=#FFFFFF;" vertex="1" connectable="0" parent="40">
                    <mxGeometry x="-0.3857" y="-1" relative="1" as="geometry">
                        <mxPoint x="-1" as="offset"/>
                    </mxGeometry>
                </mxCell>
                <mxCell id="41" value="" style="endArrow=none;html=1;fontColor=#FFFFFF;entryX=0.5;entryY=1;entryDx=0;entryDy=0;exitX=0.5;exitY=0;exitDx=0;exitDy=0;" edge="1" parent="1" source="39" target="2">
                    <mxGeometry width="50" height="50" relative="1" as="geometry">
                        <mxPoint x="510" y="470" as="sourcePoint"/>
                        <mxPoint x="560" y="420" as="targetPoint"/>
                    </mxGeometry>
                </mxCell>
                <mxCell id="42" value="1" style="edgeLabel;html=1;align=center;verticalAlign=middle;resizable=0;points=[];fontColor=#FFFFFF;" vertex="1" connectable="0" parent="41">
                    <mxGeometry x="0.5286" relative="1" as="geometry">
                        <mxPoint x="-1" as="offset"/>
                    </mxGeometry>
                </mxCell>
                <mxCell id="44" value="attrezzatura" style="whiteSpace=wrap;html=1;fontColor=#FFFFFF;" vertex="1" parent="1">
                    <mxGeometry x="640" y="470" width="120" height="60" as="geometry"/>
                </mxCell>
                <mxCell id="46" value="&lt;div style=&quot;font-size: 12px&quot;&gt;&lt;br&gt;&lt;/div&gt;" style="ellipse;whiteSpace=wrap;html=1;labelPosition=right;verticalLabelPosition=middle;align=left;verticalAlign=middle;labelBackgroundColor=default;fillColor=#000000;spacingLeft=2;fontSize=12;aspect=fixed;snapToPoint=1;fontColor=#FF0000;fontFamily=Helvetica;strokeColor=default;container=0;" vertex="1" parent="1">
                    <mxGeometry x="625" y="470" width="10" height="10" as="geometry"/>
                </mxCell>
                <mxCell id="48" value="&lt;div style=&quot;font-size: 12px&quot;&gt;&lt;br&gt;&lt;/div&gt;" style="ellipse;whiteSpace=wrap;html=1;labelPosition=right;verticalLabelPosition=middle;align=left;verticalAlign=middle;spacingLeft=2;fontSize=12;aspect=fixed;snapToPoint=1;fillColor=#000000;fontColor=#222222;fontFamily=Helvetica;strokeColor=default;container=0;" vertex="1" parent="1">
                    <mxGeometry x="628" y="498" width="4" height="4" as="geometry"/>
                </mxCell>
                <mxCell id="45" style="rounded=0;orthogonalLoop=1;jettySize=auto;html=1;entryX=0.5;entryY=0;entryDx=0;entryDy=0;fontSize=12;fontColor=#222222;endArrow=none;endFill=0;strokeColor=default;elbow=vertical;fontFamily=Helvetica;snapToPoint=1;" edge="1" source="46" target="48" parent="1">
                    <mxGeometry relative="1" as="geometry"/>
                </mxCell>
                <mxCell id="49" style="edgeStyle=none;rounded=1;orthogonalLoop=1;jettySize=auto;html=1;fontFamily=Helvetica;fontSize=12;fontColor=#222222;endArrow=none;endFill=0;strokeColor=default;elbow=vertical;snapToPoint=1;" edge="1" source="50" parent="1">
                    <mxGeometry relative="1" as="geometry">
                        <mxPoint x="770" y="490" as="targetPoint"/>
                    </mxGeometry>
                </mxCell>
                <mxCell id="50" value="&lt;div style=&quot;font-size: 12px&quot;&gt;&lt;br&gt;&lt;/div&gt;" style="ellipse;whiteSpace=wrap;html=1;labelPosition=right;verticalLabelPosition=middle;align=left;verticalAlign=middle;spacingLeft=2;fontSize=12;aspect=fixed;snapToPoint=1;fillColor=#000000;fontFamily=Helvetica;fontColor=#222222;strokeColor=default;container=0;" vertex="1" parent="1">
                    <mxGeometry x="768" y="498" width="4" height="4" as="geometry"/>
                </mxCell>
                <mxCell id="52" value="&lt;div style=&quot;font-size: 12px&quot;&gt;&lt;br&gt;&lt;/div&gt;" style="ellipse;whiteSpace=wrap;html=1;labelPosition=right;verticalLabelPosition=middle;align=left;verticalAlign=middle;spacingLeft=2;fontSize=12;aspect=fixed;snapToPoint=1;fillColor=#000000;fontColor=#FFFFFF;" vertex="1" parent="1">
                    <mxGeometry x="668" y="538" width="4" height="4" as="geometry"/>
                </mxCell>
                <mxCell id="54" value="&lt;div style=&quot;font-size: 12px&quot;&gt;&lt;br&gt;&lt;/div&gt;" style="ellipse;whiteSpace=wrap;html=1;labelPosition=right;verticalLabelPosition=middle;align=left;verticalAlign=middle;spacingLeft=2;fontSize=12;aspect=fixed;snapToPoint=1;fillColor=#000000;fontColor=#FFFFFF;" vertex="1" parent="1">
                    <mxGeometry x="698" y="538" width="4" height="4" as="geometry"/>
                </mxCell>
                <mxCell id="55" value="&lt;div style=&quot;font-size: 12px&quot;&gt;&lt;br&gt;&lt;/div&gt;" style="ellipse;whiteSpace=wrap;html=1;labelPosition=right;verticalLabelPosition=middle;align=left;verticalAlign=middle;spacingLeft=2;fontSize=12;aspect=fixed;snapToPoint=1;fillColor=#000000;fontColor=#FFFFFF;" vertex="1" parent="1">
                    <mxGeometry x="728" y="538" width="4" height="4" as="geometry"/>
                </mxCell>
                <mxCell id="56" value="" style="endArrow=none;html=1;fontColor=#FFFFFF;entryX=0.5;entryY=1;entryDx=0;entryDy=0;exitX=1;exitY=0.5;exitDx=0;exitDy=0;" edge="1" parent="1" source="55" target="50">
                    <mxGeometry width="50" height="50" relative="1" as="geometry">
                        <mxPoint x="690" y="610" as="sourcePoint"/>
                        <mxPoint x="740" y="560" as="targetPoint"/>
                        <Array as="points">
                            <mxPoint x="770" y="540"/>
                        </Array>
                    </mxGeometry>
                </mxCell>
                <mxCell id="57" value="" style="endArrow=none;html=1;fontColor=#FFFFFF;entryX=0.5;entryY=1;entryDx=0;entryDy=0;exitX=0;exitY=0.5;exitDx=0;exitDy=0;" edge="1" parent="1" source="52" target="48">
                    <mxGeometry width="50" height="50" relative="1" as="geometry">
                        <mxPoint x="640" y="600" as="sourcePoint"/>
                        <mxPoint x="690" y="550" as="targetPoint"/>
                        <Array as="points">
                            <mxPoint x="630" y="540"/>
                        </Array>
                    </mxGeometry>
                </mxCell>
                <mxCell id="58" value="" style="endArrow=none;html=1;fontColor=#FFFFFF;entryX=0;entryY=0.5;entryDx=0;entryDy=0;exitX=1;exitY=0.5;exitDx=0;exitDy=0;" edge="1" parent="1" source="52" target="54">
                    <mxGeometry width="50" height="50" relative="1" as="geometry">
                        <mxPoint x="650" y="600" as="sourcePoint"/>
                        <mxPoint x="700" y="550" as="targetPoint"/>
                    </mxGeometry>
                </mxCell>
                <mxCell id="59" value="" style="endArrow=none;html=1;fontColor=#FFFFFF;entryX=0;entryY=0.5;entryDx=0;entryDy=0;exitX=1;exitY=0.5;exitDx=0;exitDy=0;" edge="1" parent="1" source="54" target="55">
                    <mxGeometry width="50" height="50" relative="1" as="geometry">
                        <mxPoint x="690" y="600" as="sourcePoint"/>
                        <mxPoint x="740" y="550" as="targetPoint"/>
                    </mxGeometry>
                </mxCell>
                <mxCell id="60" value="&lt;div style=&quot;font-size: 12px;&quot;&gt;&lt;span style=&quot;font-size: 12px;&quot;&gt;&lt;span style=&quot;font-size: 12px;&quot;&gt;&lt;font color=&quot;#ffffff&quot;&gt;modello&lt;/font&gt;&lt;/span&gt;&lt;/span&gt;&lt;/div&gt;" style="ellipse;whiteSpace=wrap;html=1;labelPosition=right;verticalLabelPosition=middle;align=left;verticalAlign=middle;labelBackgroundColor=default;fillColor=none;spacingLeft=2;fontSize=12;strokeWidth=2;snapToPoint=1;fontColor=#222222;allowArrows=1;" vertex="1" parent="1">
                    <mxGeometry x="725" y="551" width="10" height="10" as="geometry"/>
                </mxCell>
                <mxCell id="61" value="&lt;div style=&quot;font-size: 12px;&quot;&gt;&lt;span style=&quot;font-size: 12px;&quot;&gt;&lt;span style=&quot;font-size: 12px;&quot;&gt;&lt;font color=&quot;#ffffff&quot;&gt;lungheza_scale&lt;/font&gt;&lt;/span&gt;&lt;/span&gt;&lt;/div&gt;" style="ellipse;whiteSpace=wrap;html=1;labelPosition=right;verticalLabelPosition=middle;align=left;verticalAlign=middle;labelBackgroundColor=default;fillColor=none;spacingLeft=2;fontSize=12;strokeWidth=2;snapToPoint=1;fontColor=#222222;allowArrows=1;" vertex="1" parent="1">
                    <mxGeometry x="695" y="570" width="10" height="10" as="geometry"/>
                </mxCell>
                <mxCell id="62" value="&lt;div style=&quot;font-size: 12px;&quot;&gt;&lt;span style=&quot;font-size: 12px;&quot;&gt;&lt;span style=&quot;font-size: 12px;&quot;&gt;&lt;font color=&quot;#ffffff&quot;&gt;frequenza_pompaggio&lt;/font&gt;&lt;/span&gt;&lt;/span&gt;&lt;/div&gt;" style="ellipse;whiteSpace=wrap;html=1;labelPosition=right;verticalLabelPosition=middle;align=left;verticalAlign=middle;labelBackgroundColor=default;fillColor=none;spacingLeft=2;fontSize=12;strokeWidth=2;snapToPoint=1;fontColor=#222222;allowArrows=1;" vertex="1" parent="1">
                    <mxGeometry x="665" y="590" width="10" height="10" as="geometry"/>
                </mxCell>
                <mxCell id="63" value="&lt;div style=&quot;font-size: 12px;&quot;&gt;&lt;span style=&quot;font-size: 12px;&quot;&gt;&lt;span style=&quot;font-size: 12px;&quot;&gt;&lt;font color=&quot;#ffffff&quot;&gt;produttore&lt;/font&gt;&lt;/span&gt;&lt;/span&gt;&lt;/div&gt;" style="ellipse;whiteSpace=wrap;html=1;labelPosition=right;verticalLabelPosition=middle;align=left;verticalAlign=middle;labelBackgroundColor=default;fillColor=none;spacingLeft=2;fontSize=12;strokeWidth=2;snapToPoint=1;fontColor=#222222;allowArrows=1;" vertex="1" parent="1">
                    <mxGeometry x="790" y="495" width="10" height="10" as="geometry"/>
                </mxCell>
                <mxCell id="64" value="&lt;div style=&quot;font-size: 12px&quot;&gt;&lt;span style=&quot;font-size: 12px&quot;&gt;&lt;span style=&quot;font-size: 12px&quot;&gt;&lt;font color=&quot;#ffffff&quot;&gt;anno_produzione&lt;/font&gt;&lt;/span&gt;&lt;/span&gt;&lt;/div&gt;" style="ellipse;whiteSpace=wrap;html=1;labelPosition=lrft;verticalLabelPosition=middle;align=right;verticalAlign=middle;labelBackgroundColor=default;fillColor=none;spacingLeft=0;fontSize=12;strokeWidth=2;snapToPoint=1;spacingRight=12;fontColor=#222222;allowArrows=1;spacing=2;" vertex="1" parent="1">
                    <mxGeometry x="600" y="495" width="10" height="10" as="geometry"/>
                </mxCell>
                <mxCell id="68" value="" style="endArrow=none;html=1;fontColor=#FFFFFF;entryX=0;entryY=0.5;entryDx=0;entryDy=0;exitX=1;exitY=0.5;exitDx=0;exitDy=0;" edge="1" parent="1" source="48" target="44">
                    <mxGeometry width="50" height="50" relative="1" as="geometry">
                        <mxPoint x="560" y="590" as="sourcePoint"/>
                        <mxPoint x="610" y="540" as="targetPoint"/>
                    </mxGeometry>
                </mxCell>
                <mxCell id="69" value="" style="endArrow=none;html=1;fontColor=#FFFFFF;entryX=0;entryY=0.5;entryDx=0;entryDy=0;exitX=1;exitY=0.5;exitDx=0;exitDy=0;" edge="1" parent="1" source="64" target="48">
                    <mxGeometry width="50" height="50" relative="1" as="geometry">
                        <mxPoint x="570" y="570" as="sourcePoint"/>
                        <mxPoint x="620" y="520" as="targetPoint"/>
                    </mxGeometry>
                </mxCell>
                <mxCell id="70" value="" style="endArrow=none;html=1;fontColor=#FFFFFF;entryX=0.5;entryY=0;entryDx=0;entryDy=0;exitX=0.25;exitY=1;exitDx=0;exitDy=0;" edge="1" parent="1" source="44" target="52">
                    <mxGeometry width="50" height="50" relative="1" as="geometry">
                        <mxPoint x="590" y="600" as="sourcePoint"/>
                        <mxPoint x="640" y="550" as="targetPoint"/>
                    </mxGeometry>
                </mxCell>
                <mxCell id="71" value="" style="endArrow=none;html=1;fontColor=#FFFFFF;entryX=0.5;entryY=0;entryDx=0;entryDy=0;exitX=0.5;exitY=1;exitDx=0;exitDy=0;" edge="1" parent="1" source="44" target="54">
                    <mxGeometry width="50" height="50" relative="1" as="geometry">
                        <mxPoint x="630" y="600" as="sourcePoint"/>
                        <mxPoint x="680" y="550" as="targetPoint"/>
                    </mxGeometry>
                </mxCell>
                <mxCell id="72" value="" style="endArrow=none;html=1;fontColor=#FFFFFF;entryX=0.75;entryY=1;entryDx=0;entryDy=0;exitX=0.5;exitY=0;exitDx=0;exitDy=0;" edge="1" parent="1" source="55" target="44">
                    <mxGeometry width="50" height="50" relative="1" as="geometry">
                        <mxPoint x="600" y="600" as="sourcePoint"/>
                        <mxPoint x="650" y="550" as="targetPoint"/>
                    </mxGeometry>
                </mxCell>
                <mxCell id="73" value="" style="endArrow=none;html=1;fontColor=#FFFFFF;entryX=0;entryY=0.5;entryDx=0;entryDy=0;exitX=1;exitY=0.5;exitDx=0;exitDy=0;" edge="1" parent="1" source="50" target="63">
                    <mxGeometry width="50" height="50" relative="1" as="geometry">
                        <mxPoint x="620" y="600" as="sourcePoint"/>
                        <mxPoint x="670" y="550" as="targetPoint"/>
                    </mxGeometry>
                </mxCell>
                <mxCell id="74" value="" style="endArrow=none;html=1;fontColor=#FFFFFF;entryX=0;entryY=0.5;entryDx=0;entryDy=0;exitX=1;exitY=0.5;exitDx=0;exitDy=0;" edge="1" parent="1" source="44" target="50">
                    <mxGeometry width="50" height="50" relative="1" as="geometry">
                        <mxPoint x="630" y="580" as="sourcePoint"/>
                        <mxPoint x="680" y="530" as="targetPoint"/>
                    </mxGeometry>
                </mxCell>
                <mxCell id="75" value="" style="endArrow=none;html=1;fontColor=#FFFFFF;entryX=0.5;entryY=0;entryDx=0;entryDy=0;exitX=0.5;exitY=1;exitDx=0;exitDy=0;" edge="1" parent="1" source="55" target="60">
                    <mxGeometry width="50" height="50" relative="1" as="geometry">
                        <mxPoint x="610" y="580" as="sourcePoint"/>
                        <mxPoint x="660" y="530" as="targetPoint"/>
                    </mxGeometry>
                </mxCell>
                <mxCell id="76" value="" style="endArrow=none;html=1;fontColor=#FFFFFF;entryX=0.5;entryY=1;entryDx=0;entryDy=0;exitX=0.5;exitY=0;exitDx=0;exitDy=0;" edge="1" parent="1" source="61" target="54">
                    <mxGeometry width="50" height="50" relative="1" as="geometry">
                        <mxPoint x="610" y="580" as="sourcePoint"/>
                        <mxPoint x="660" y="530" as="targetPoint"/>
                    </mxGeometry>
                </mxCell>
                <mxCell id="77" value="" style="endArrow=none;html=1;fontColor=#FFFFFF;entryX=0.5;entryY=1;entryDx=0;entryDy=0;exitX=0.5;exitY=0;exitDx=0;exitDy=0;" edge="1" parent="1" source="62" target="52">
                    <mxGeometry width="50" height="50" relative="1" as="geometry">
                        <mxPoint x="610" y="590" as="sourcePoint"/>
                        <mxPoint x="660" y="540" as="targetPoint"/>
                    </mxGeometry>
                </mxCell>
                <mxCell id="78" value="&lt;font color=&quot;#ffffff&quot;&gt;possiede&lt;/font&gt;" style="rhombus;whiteSpace=wrap;html=1;fontSize=12;fontColor=#222222;fillColor=none;snapToPoint=1;" vertex="1" parent="1">
                    <mxGeometry x="660" y="350" width="80" height="60" as="geometry"/>
                </mxCell>
                <mxCell id="79" value="" style="endArrow=none;html=1;fontColor=#FFFFFF;entryX=0.5;entryY=1;entryDx=0;entryDy=0;exitX=0.5;exitY=0;exitDx=0;exitDy=0;" edge="1" parent="1" target="78" source="44">
                    <mxGeometry width="50" height="50" relative="1" as="geometry">
                        <mxPoint x="730" y="440" as="sourcePoint"/>
                        <mxPoint x="490" y="470" as="targetPoint"/>
                    </mxGeometry>
                </mxCell>
                <mxCell id="80" value="1" style="edgeLabel;html=1;align=center;verticalAlign=middle;resizable=0;points=[];fontColor=#FFFFFF;" vertex="1" connectable="0" parent="79">
                    <mxGeometry x="-0.3857" y="-1" relative="1" as="geometry">
                        <mxPoint x="-1" as="offset"/>
                    </mxGeometry>
                </mxCell>
                <mxCell id="81" value="" style="endArrow=none;html=1;fontColor=#FFFFFF;exitX=0.5;exitY=0;exitDx=0;exitDy=0;entryX=0.5;entryY=1;entryDx=0;entryDy=0;" edge="1" parent="1" source="78" target="28">
                    <mxGeometry width="50" height="50" relative="1" as="geometry">
                        <mxPoint x="830" y="470" as="sourcePoint"/>
                        <mxPoint x="720" y="310" as="targetPoint"/>
                    </mxGeometry>
                </mxCell>
                <mxCell id="82" value="1" style="edgeLabel;html=1;align=center;verticalAlign=middle;resizable=0;points=[];fontColor=#FFFFFF;" vertex="1" connectable="0" parent="81">
                    <mxGeometry x="0.5286" relative="1" as="geometry">
                        <mxPoint x="-1" as="offset"/>
                    </mxGeometry>
                </mxCell>
            </root>
        </mxGraphModel>
    </diagram>
</mxfile>